<svg width="233" height="56" viewBox="0 0 233 56" fill="none" xmlns="http://www.w3.org/2000/svg">
<g clip-path="url(#clip0_833_2397)">
<path d="M139.751 39.1861C140.832 40.2233 141.781 41.1574 142.756 42.0622C143.274 42.5431 143.825 42.2629 144.289 41.9618C145.913 40.9036 147.597 39.911 149.092 38.6897C150.443 37.5842 151.583 36.2207 152.8 34.9548C153.042 34.7039 153.207 34.3805 153.472 33.9957C152.025 33.5593 150.717 33.9957 149.41 34.0514C149.585 32.1275 151.709 30.0196 153.592 29.869C154.515 29.7979 155.442 29.7798 156.368 29.7631C157.012 29.7519 157.499 29.5567 157.864 28.9656C158.196 28.4641 158.587 28.004 159.028 27.5952C160.219 26.4241 161.398 26.116 163.185 26.5161C163.035 27.9214 161.476 28.3731 160.97 29.7226L163.035 30.0015C162.191 31.5922 161.1 32.8204 159.871 33.9329C159.7 34.0877 159.349 34.0723 159.078 34.0863C158.616 34.1052 158.152 34.0884 157.692 34.0361C156.807 33.9204 156.216 34.2466 155.755 35.012C154.971 36.3183 154.012 37.5215 153.318 38.8752C152.891 39.7116 152.687 40.7099 152.621 41.6523C152.53 42.9265 153.008 43.4368 154.271 43.6041C157.129 43.9861 159.912 43.7547 162.484 42.3173C163.12 41.9422 163.728 41.5229 164.305 41.0626C164.811 40.6778 164.949 40.0867 164.651 39.5708C164.218 38.8192 163.711 38.1122 163.139 37.4601C162.656 36.9025 162.024 36.494 161.496 35.974C161.052 35.5334 160.659 34.8782 161.077 34.3777C161.397 33.9957 162.12 33.912 162.685 33.7921C162.915 33.7447 163.242 33.8981 163.452 34.0542C165.36 35.4484 167.241 36.8676 168.429 38.9839C168.903 39.8274 168.707 41.0918 167.899 41.7596C165.855 43.4521 163.68 44.9146 161.008 45.4625C158.887 45.8961 156.825 46.8148 154.618 46.5206C152.977 46.2941 151.362 45.9118 149.793 45.3788C148.519 44.9522 148.189 44.0195 148.597 42.684C148.865 41.8112 149.238 40.9692 149.648 39.8957C148.851 40.2107 148.374 40.6625 147.847 41.0431C146.688 41.8795 145.533 42.716 144.323 43.4786C143.864 43.7658 143.672 44.0642 143.66 44.5716C143.538 49.6114 140.623 52.8389 136.568 55.2438C134.7 56.3591 133.444 55.8014 132.665 53.7743C132.096 52.2874 132.078 50.6458 132.616 49.1472C133.242 47.3181 134.018 45.5364 134.803 43.7658C135.322 42.5947 135.381 42.6198 134.246 41.6607C133.887 41.9827 133.517 42.3159 133.147 42.6505C131.664 43.9931 130.08 45.2004 128.155 45.8319C126.837 46.2641 125.525 46.2181 124.558 45.1349C123.992 44.5033 123.663 43.6487 123.285 42.8652C123.112 42.5041 123.08 42.0761 122.942 41.4989C122.556 41.7304 122.252 41.8851 121.977 42.0803C120.621 43.0422 119.295 44.0488 117.909 44.9634C117.362 45.3097 116.755 45.5499 116.119 45.6716C114.715 45.9588 113.546 45.0707 113.349 43.6459C113.2 42.5585 113.328 41.5129 113.993 40.6025C114.997 39.2307 116.024 37.8784 117.112 36.4201C116.824 36.3648 116.531 36.3354 116.238 36.3322C115.819 36.3643 115.419 36.5135 115.007 36.5302C113.633 36.5832 112.637 37.0753 111.778 38.2799C111.028 39.3408 109.868 40.1313 108.828 40.9678C107.605 41.9534 106.339 42.8889 105.051 43.7867C104.137 44.4316 103.181 45.0156 102.19 45.535C101.654 45.8073 101.068 45.9681 100.467 46.0076C99.3364 46.0815 98.5836 45.3774 98.6408 44.244C98.6642 43.5085 98.8498 42.7873 99.1845 42.1319C99.922 40.8047 100.803 39.5569 101.644 38.2882C101.923 37.87 102.254 37.4838 102.759 36.8341C102.228 37.0028 101.923 37.0265 101.713 37.1799C100.711 37.9188 99.6766 38.6284 98.7607 39.4663C97.2271 40.8688 95.7688 42.3605 94.2813 43.8146C94.0164 44.0739 93.7654 44.3472 93.4908 44.5953C92.1692 45.7985 91.1765 45.5475 90.6356 43.8118C89.8814 41.3916 90.3749 39.094 91.7621 37.0739C93.0566 35.2173 94.4714 33.4476 95.9975 31.7762C98.8443 28.6087 101.772 25.5249 104.707 22.4466C105.372 21.7495 106.21 21.2212 106.979 20.6342C107.574 20.1783 108.274 20.1463 108.97 20.2676C109.737 20.407 110.004 20.8684 109.699 21.5725C109.504 21.9911 109.254 22.382 108.956 22.7352C104.56 28.2351 99.7881 33.3976 94.5462 38.1042C93.6497 38.9086 93.5145 39.7367 93.8142 41.0026C94.2659 40.6499 94.6089 40.3836 94.9491 40.1132C97.2327 38.3008 99.4842 36.4535 101.812 34.7067C102.727 34.0222 103.796 33.53 104.831 33.024C105.554 32.6698 106.286 32.7814 106.882 33.3697C107.753 34.2341 107.767 34.828 106.95 35.5878C105.932 36.53 104.965 37.5259 104.053 38.5712C103.475 39.2309 102.993 39.9687 102.621 40.7628C102.235 41.6146 102.737 42.2002 103.685 42.1862C103.824 42.1936 103.963 42.1757 104.096 42.1333C106.424 41.209 108.683 40.1815 110.269 38.1739C110.218 37.9969 110.222 37.8742 110.165 37.831C108.836 36.8355 108.725 36.4926 109.519 35.0915C110.283 33.7039 111.427 32.5638 112.818 31.8055C113.271 31.5629 113.81 31.482 114.491 31.2673C114.39 31.9519 114.328 32.3826 114.238 32.9821C115.437 32.8427 116.571 32.7033 117.707 32.5932C118.489 32.5151 119.274 32.4747 120.058 32.4217C120.816 32.3701 121.269 32.7688 121.534 33.4366C121.799 34.1044 121.924 34.7917 121.354 35.3787C120.904 35.8415 120.378 36.2374 119.943 36.7115C119.098 37.6232 118.255 38.542 117.48 39.5123C117.181 39.9235 116.97 40.3919 116.861 40.8883C116.693 41.5477 116.99 41.9646 117.655 42.0914C117.966 42.1514 118.346 42.2099 118.612 42.0914C119.995 41.4641 121.36 40.7981 122.706 40.0936C122.909 39.9891 123.016 39.6545 123.112 39.4063C124.219 36.572 126.214 34.5143 128.828 33.0518C129.521 32.6862 130.292 32.4948 131.075 32.4942C132.166 32.4872 132.595 33.24 132.012 34.1671C131.314 35.2474 130.517 36.261 129.633 37.1952C129.011 37.8672 128.204 38.3663 127.508 38.9741C127.15 39.2671 126.839 39.6132 126.586 40.0002C126.037 40.9162 126.351 41.8642 127.32 42.2922C127.989 42.6122 128.749 42.69 129.469 42.5125C130.995 42.1402 132.279 41.3414 133.553 40.5021C133.775 40.3557 134.038 40.1313 134.094 39.8985C134.324 38.9226 135.052 38.489 135.85 38.0707C136.251 37.8468 136.616 37.5649 136.934 37.2343C137.788 36.3894 138.632 35.532 139.443 34.6425C139.886 34.1788 140.271 33.664 140.592 33.109C142.379 29.8132 144.302 26.6053 146.518 23.5773C146.709 23.3165 146.898 23.0517 147.105 22.8049C147.469 22.3741 147.879 21.8945 148.499 22.1078C149.173 22.3379 149.212 22.9959 149.244 23.6121C149.304 24.8013 149.068 25.9222 148.407 26.919C147.62 28.117 146.809 29.2983 145.975 30.4629C144.172 32.9807 142.35 35.4818 140.537 37.9913C140.268 38.3677 140.031 38.7581 139.751 39.1861ZM137.008 44.0809C136.598 44.9982 136.224 45.7399 135.931 46.5123C135.364 48.0054 135.114 49.5585 135.396 51.1408C135.701 52.864 136.906 53.292 138.148 52.0819C140.215 50.0687 140.74 47.5258 140.564 44.7724L137.008 44.0809Z" fill="white"/>
<path d="M91.3773 25.5695C84.171 24.9882 77.4359 25.925 70.804 27.7221C69.5492 28.0608 69.5688 28.1194 68.9999 28.7802L72.7307 29.4438C72.4937 29.6293 72.378 29.7979 72.2608 29.7993C70.6409 29.7993 69.0209 29.8202 67.4037 29.7673C65.7641 29.7143 65.4825 29.2961 65.8589 27.6565C65.9412 27.2955 66.0472 26.94 66.1252 26.5789C66.7233 23.8296 68.565 22.257 71.1553 21.5892C73.3413 21.0316 75.5761 20.5408 77.8179 20.3248C80.9882 20.018 84.1863 19.8926 87.3719 19.8828C89.0142 19.8828 90.6537 20.3485 92.3044 20.499C95.0634 20.75 97.8308 20.9173 100.594 21.1194C101.152 21.1598 101.719 21.1069 102.243 21.2463C103.605 21.6102 103.879 22.6948 102.801 23.5745C102.234 24.0394 101.565 24.3638 100.849 24.5211C99.0367 24.8794 97.202 25.1234 95.3673 25.3465C94.7497 25.4217 94.3524 25.6364 94.0596 26.1829C93.8278 26.5822 93.5468 26.9508 93.2231 27.2801C89.9943 30.8115 87.252 34.7011 84.6422 38.6884C84.0121 39.6503 83.5924 40.7615 82.9079 41.6774C81.7201 43.264 80.4542 44.8003 79.1186 46.2655C78.1762 47.3028 76.8462 47.353 75.6333 46.8831C73.1308 45.9072 70.7454 44.6734 68.5789 43.0618C68.1764 42.7516 67.8031 42.4054 67.4636 42.0274C66.0695 40.5245 65.9063 38.4165 67.0537 36.685C68.2515 34.8462 70.0188 33.4505 72.0852 32.7117C75.2108 31.5685 78.3686 30.5396 81.6476 29.8941C82.7629 29.6739 83.8238 29.1971 85.0214 28.8067C84.981 30.1925 84.4359 31.1893 83.209 31.6689C81.32 32.4092 79.3988 33.063 77.4847 33.7406C76.0905 34.2313 74.6727 34.6565 73.2869 35.1682C71.8354 35.6978 70.6269 36.7388 69.888 38.0959C69.3025 39.1373 69.3805 39.741 70.2338 40.5858C71.8077 42.1431 73.8279 43.0019 75.7601 43.9903C76.2355 44.2343 76.6691 44.0628 76.9591 43.6139C77.3606 42.9935 77.7398 42.3592 78.1358 41.7332C80.97 37.2608 84.4247 33.2819 87.9951 29.3964C88.8706 28.4442 89.7852 27.5255 90.6677 26.5775C90.8796 26.3502 91.0288 26.0714 91.3773 25.5695Z" fill="white"/>
<path d="M201.397 33.0781C202.689 33.5563 203.964 32.9387 205.124 33.6567C204.984 33.9355 204.917 34.2144 204.744 34.3956C203.854 35.3353 202.974 36.2916 202.006 37.1462C201.668 37.4446 201.095 37.5812 200.612 37.6063C197.963 37.7457 198.337 37.3024 196.749 39.9568C196.346 40.6302 195.904 41.2882 195.586 42.0006C195.447 42.3255 195.404 42.8999 195.595 43.116C195.786 43.332 196.375 43.4282 196.71 43.3195C197.718 42.9933 198.686 42.5416 199.67 42.1442C199.876 42.0606 200.088 41.9979 200.367 41.9058C200.569 42.476 200.251 42.7646 199.908 42.9696C198.044 44.0849 196.182 45.2002 194.283 46.2486C193.787 46.4927 193.242 46.6169 192.689 46.6111C190.834 46.6445 189.77 45.1082 190.569 43.4505C191.227 42.0843 192.077 40.81 192.852 39.5009C193.105 39.0757 193.391 38.6728 193.761 38.1068C193.314 38.0245 193.064 37.9409 192.816 37.9409C190.132 37.9311 187.449 37.9409 184.765 37.9256C184.128 37.9256 183.65 38.1249 183.149 38.5362C179.89 41.1981 176.606 43.8288 173.298 46.4284C172.559 46.9825 171.749 47.4355 170.891 47.7752C170.545 47.9146 169.963 47.8058 169.65 47.5828C169.491 47.4712 169.57 46.7784 169.754 46.4758C170.989 44.3944 172.84 42.7485 175.052 41.7664C175.178 41.7107 175.331 41.6145 175.442 41.6382C176.802 41.9254 177.545 40.9522 178.398 40.2106C179.212 39.5023 180.012 38.776 180.82 38.058L180.701 37.7875C180.259 37.7471 179.82 37.6913 179.377 37.6704C178.777 37.6412 178.172 37.6704 177.574 37.6161C176.627 37.5254 176.254 36.9469 176.804 36.2219C178.293 34.2701 180.053 32.7017 183.031 32.8272L181.938 33.5382C182.105 33.6902 182.196 33.8449 182.288 33.8449C183.395 33.8449 184.518 33.9063 185.606 33.7808C186.108 33.7236 186.611 33.3542 187.037 33.0266C191.007 29.9943 194.972 26.9481 199.335 24.4902C201.705 23.1532 204.173 21.9808 206.601 20.7428C206.923 20.6012 207.252 20.4797 207.589 20.3789C208.514 21.6002 208.598 22.4771 207.793 23.7318C206.946 25.0535 206.003 26.3152 205.104 27.6033C204.019 29.1546 202.935 30.7081 201.853 32.264C201.704 32.4926 201.592 32.7352 201.397 33.0781ZM204.171 23.8768C202.657 24.1403 201.496 24.9601 200.294 25.6892C199.07 26.4327 197.862 27.2023 196.67 27.9979C195.441 28.8204 194.221 29.6597 193.045 30.5492C191.939 31.3857 190.746 32.1315 189.771 33.2552C192.217 33.2552 194.467 33.2887 196.714 33.2203C197.078 33.2092 197.513 32.8021 197.77 32.4661C199.164 30.63 200.516 28.7563 201.891 26.9021C202.642 25.8899 203.405 24.8862 204.171 23.8782V23.8768Z" fill="white"/>
<path d="M29.0176 23.892C28.3122 23.7776 27.8089 24.2196 27.3572 24.6434C25.2005 26.6677 22.9963 28.6516 20.9511 30.7776C18.5811 33.2466 16.3574 35.8523 14.078 38.4064C13.6249 38.9152 13.2136 39.4603 12.6685 40.1295C15.5962 40.6412 18.3106 41.0706 21.0097 41.6045C23.7087 42.1385 26.398 42.7756 29.2686 43.4085C28.0138 44.687 26.8386 45.9041 25.397 46.8047C24.5605 47.3303 23.5958 47.156 22.6882 46.9845C19.1931 46.3265 15.7175 45.5304 12.2057 44.9895C9.13856 44.5183 6.04078 44.3733 3.05174 45.6517C2.15112 46.0365 1.15849 46.445 0.150531 45.9626C-0.185457 45.3687 0.101736 44.9449 0.4196 44.5336C0.758376 44.0945 1.11667 43.672 1.45126 43.2273C2.52475 41.7969 3.87289 40.8322 5.70339 40.6328C6.75876 40.5185 7.80994 40.2815 8.86531 40.262C9.7464 40.2452 10.3027 39.9176 10.8436 39.2456C14.3485 34.8806 17.9537 30.595 21.9967 26.7179C23.9486 24.8797 25.9962 23.1457 28.1309 21.5233C28.9786 20.8653 30.0632 20.4164 31.1102 20.1292C32.8585 19.6552 33.7884 20.5126 33.3408 22.2594C32.9853 23.6215 32.3036 24.9208 31.6288 26.1728C30.9053 27.5125 30.0479 28.7826 29.1919 30.0457C28.782 30.6494 28.4098 31.1903 29.0525 31.8915C27.3516 33.4906 25.8181 35.1552 23.416 35.5693C22.889 34.8415 22.9796 34.1333 23.2696 33.5213C23.8223 32.3048 24.462 31.1298 25.1837 30.0053C26.2837 28.3518 27.5189 26.7862 28.6788 25.1718C28.9228 24.8288 29.3355 24.4942 29.0176 23.892Z" fill="white"/>
<path d="M111.229 22.1322V19.8513L118.051 17.7782C117.748 16.833 117.006 16.2447 116.401 15.6048C113.572 12.5823 113.282 8.07642 115.832 4.87965C116.39 4.17283 117.234 3.69045 117.899 3.05751C119.026 1.98402 120.349 1.26744 121.795 0.737662C125.255 -0.528218 128.501 -0.20896 131.484 2.0384C131.929 2.36991 132.355 2.72694 132.758 3.1077C134.222 4.50184 134.3 6.29053 134.108 8.12661C134.081 8.37337 133.729 8.76652 133.508 8.78046C132.728 8.83413 131.943 8.79529 131.172 8.66475C130.958 8.62571 130.786 8.12243 130.674 7.80456C130.404 7.0336 130.33 6.15111 129.909 5.48192C128.745 3.63748 126.759 3.43672 124.88 3.57334C122.266 3.76434 120.175 5.09296 118.733 7.33055C117.654 9.01189 118.021 10.742 118.906 12.3062C119.989 14.2176 121.804 15.3915 123.745 16.3242C127.767 18.2634 132.001 19.5181 136.4 20.2807C138.584 20.6585 140.755 21.1172 142.916 21.6191C143.663 21.792 144.36 22.1837 145.272 22.5532C144.668 23.3269 144.221 24.0212 143.644 24.5817C143.414 24.8061 142.87 24.8605 142.514 24.7754C140.169 24.2643 137.83 23.7201 135.499 23.1429C132.499 22.3929 129.506 21.6159 126.521 20.8119C125.676 20.586 124.863 20.2542 124.034 19.967C122.856 19.5474 121.569 19.5474 120.391 19.967C117.774 20.8481 115.166 21.8171 112.39 22.1238C112.003 22.1464 111.616 22.1492 111.229 22.1322Z" fill="white"/>
<path d="M227.266 38.0358L226.756 36.526C224.908 37.4587 223.087 38.2617 221.68 39.6879C220.671 40.7098 220.997 42.2155 222.281 42.9753C223.335 43.5985 224.475 43.6459 225.641 43.381C227.467 42.9627 229.105 42.1095 230.727 41.2145C231.404 40.8409 232.079 40.4603 232.818 40.0518C233.168 40.7014 232.992 41.1671 232.574 41.4766C230.144 43.3113 227.865 45.3802 224.888 46.3658C222.27 47.2316 220.232 46.1344 219.162 44.0739C218.765 43.3085 218.485 42.4818 218.086 41.5282C217.626 41.8767 217.241 42.1806 216.842 42.465C215.676 43.3015 214.511 44.1282 213.331 44.9396C213.019 45.1392 212.687 45.3042 212.339 45.4318C211.351 45.8291 210.349 46.0131 209.477 45.2017C209.073 44.8449 208.782 44.3773 208.641 43.857C208.5 43.3366 208.514 42.7863 208.683 42.274C208.987 41.3083 209.434 40.3931 210.007 39.5583C210.726 38.5015 211.619 37.5618 212.606 36.3685C211.145 36.3346 209.689 36.5472 208.299 36.9972C207.998 37.0976 207.799 37.5186 207.569 37.8044C206.593 39.0327 205.53 40.1745 204.065 40.997C203.609 39.4342 205.32 39.1135 205.546 38.139C205.144 37.5814 204.626 37.1366 204.469 36.5873C204.239 35.7773 204.725 35.0426 205.271 34.4668C206.115 33.557 207.018 32.703 207.973 31.91C208.391 31.5698 209.038 31.5029 209.723 31.2617C209.739 31.5404 209.736 31.8199 209.714 32.0982C209.655 32.3449 209.578 32.5872 209.484 32.8232C210.719 33.0574 211.831 32.6628 212.957 32.6043C213.695 32.5652 214.431 32.4927 215.167 32.4272C215.935 32.3589 216.532 32.5666 216.815 33.3627C217.098 34.1587 217.192 34.9032 216.536 35.5529C216.074 36.006 215.539 36.3894 215.115 36.8759C214.235 37.8783 213.389 38.9114 212.568 39.9639C212.361 40.269 212.219 40.6129 212.15 40.9747C212.01 41.5087 212.289 41.8628 212.787 42.0454C212.919 42.0885 213.055 42.117 213.193 42.1304C214.638 42.3228 217.837 40.5244 218.552 39.2167C218.927 38.4817 219.414 37.8092 219.995 37.2231C222.158 35.1834 224.537 33.4254 227.287 32.2348C227.922 31.9603 228.584 31.7538 229.263 31.6186C229.65 31.5293 230.056 31.5536 230.43 31.6886C230.804 31.8237 231.131 32.0636 231.372 32.3798C231.91 33.0588 231.76 33.8395 231.296 34.4487C230.512 35.4715 229.663 36.4421 228.753 37.3541C228.436 37.672 227.88 37.764 227.266 38.0358Z" fill="white"/>
<path d="M49.4075 32.931L48.0664 33.879C48.1863 34.1578 48.2448 34.4366 48.4037 34.6304C49.1357 35.5408 48.8666 36.3034 48.1486 37.0674C47.5143 37.7394 46.9092 38.4392 46.3251 39.1586C46.0523 39.47 45.8404 39.8299 45.7005 40.2195C45.3143 41.4743 45.9793 42.4334 47.2801 42.2759C48.256 42.1574 49.2207 41.7336 50.1353 41.3265C50.9216 40.9766 51.6312 40.4565 52.3938 40.0007C52.6991 40.72 52.3422 41.1759 51.9002 41.5105C50.0223 42.927 48.143 44.3462 46.2038 45.6762C45.6573 46.0498 44.9212 46.2046 44.252 46.3217C42.7993 46.574 42.0088 45.9034 42.0953 44.4187C42.144 43.6059 42.4382 42.8043 42.6529 42.0054C42.7561 41.6151 42.9206 41.2428 43.1004 40.7409C42.4243 40.7772 42.1245 41.2066 41.7648 41.5077C40.4878 42.5728 39.2554 43.7063 37.9309 44.7003C35.646 46.4053 34.4526 46.1572 33.025 43.6812C32.5758 42.8828 32.2639 42.0148 32.102 41.1132C31.8623 39.8013 32.3391 38.6665 33.3568 37.7672C36.8505 34.7001 40.8154 32.4988 45.3283 31.3277C45.9137 31.1909 46.5117 31.1152 47.1128 31.1018C48.4567 31.0335 48.8861 31.3765 49.4075 32.931ZM46.1076 34.7517L45.8803 34.4548C44.7288 34.8967 43.5424 35.262 42.434 35.7945C40.5282 36.7119 38.6517 37.6975 36.8017 38.7222C36.3955 38.9488 36.0398 39.2558 35.7562 39.6245C35.4727 39.9931 35.2672 40.4157 35.1524 40.8664C34.9921 41.4673 35.013 42.0933 35.5261 42.531C36.0391 42.9688 36.5661 42.7666 37.0708 42.478C37.9505 41.9734 38.8706 41.5272 39.6945 40.9445C42.1496 39.2074 44.1168 36.9642 46.1076 34.7517Z" fill="white"/>
<path d="M132.991 31.0326C131.691 30.9977 131.088 30.033 131.636 28.8424C132.054 27.9181 132.801 27.2949 133.714 26.9129C134.589 26.5477 135.495 26.8335 135.902 27.5473C136.043 27.7807 136.113 28.0499 136.104 28.3224C135.978 29.605 134.275 31.0661 132.991 31.0326Z" fill="white"/>
</g>
<defs>
<clipPath id="clip0_833_2397">
<rect width="233" height="55.827" fill="white"/>
</clipPath>
</defs>
</svg>
