<svg xmlns="http://www.w3.org/2000/svg" viewBox="0 0 16 16"><g stroke-linejoin="miter" fill="currentColor" stroke-linecap="butt" class="nc-icon-wrapper"><path d="M8.04 0.67a7.37 7.37 0 0 1 0 14.74" fill="none" stroke="currentColor" stroke-linecap="square" stroke-miterlimit="10" stroke-width="2"></path><path fill="none" stroke="currentColor" stroke-linecap="square" stroke-miterlimit="10" stroke-width="2" d="M4.02 8.04l2.68 2.68 5.36-5.36"></path><path d="M0.7 8.65c-0.02-0.2-0.03-0.41-0.03-0.61s0.01-0.41 0.03-0.61" fill="none" stroke="currentColor" stroke-linecap="square" stroke-miterlimit="10" stroke-width="2" data-color="color-2"></path><path d="M4.18 1.77a7.34 7.34 0 0 1 1.09-0.56" fill="none" stroke="currentColor" stroke-linecap="square" stroke-miterlimit="10" stroke-width="2" data-color="color-2"></path><path d="M1.47 4.72a7.45 7.45 0 0 1 0.64-1.04" fill="none" stroke="currentColor" stroke-linecap="square" stroke-miterlimit="10" stroke-width="2" data-color="color-2"></path><path d="M2.1 12.38a7.38 7.38 0 0 1-0.64-1.04" fill="none" stroke="currentColor" stroke-linecap="square" stroke-miterlimit="10" stroke-width="2" data-color="color-2"></path><path d="M4.17 14.3a7.36 7.36 0 0 0 1.09 0.56" fill="none" stroke="currentColor" stroke-linecap="square" stroke-miterlimit="10" stroke-width="2" data-color="color-2"></path></g></svg>